<?xml version="1.0" encoding="utf-8"?>
<!-- Generator: Adobe Illustrator 27.0.0, SVG Export Plug-In . SVG Version: 6.00 Build 0)  -->
<svg version="1.1" id="Layer_1" xmlns="http://www.w3.org/2000/svg" xmlns:xlink="http://www.w3.org/1999/xlink" x="0px" y="0px"
	 viewBox="0 0 170.08 170.08" style="enable-background:new 0 0 170.08 170.08;" xml:space="preserve">
<style type="text/css">
	.st0{display:none;}
	.st1{display:inline;fill:#15152E;}
	.st2{fill:none;}
	.st3{fill:#010202;}
</style>
<g>
	<g class="st0">
		<path class="st1" d="M96.92,74.17c0.21,0.14,0.49,0.14,0.73,0.06c0.24-0.08,0.45-0.24,0.64-0.4c0.89-0.74,1.61-1.67,2.12-2.71
			c0.2-0.4,0.46-0.83,0.13-1.22c-0.35-0.42-1.15-0.42-1.61-0.28c-0.61,0.2-1.1,0.67-1.44,1.21c-0.34,0.54-0.54,1.16-0.75,1.76
			c-0.09,0.27-0.18,0.55-0.18,0.83C96.57,73.71,96.68,74.01,96.92,74.17z"/>
		<path class="st1" d="M65.95,88.71c1.41-0.25,2.67-1.02,3.94-1.69c7.35-3.89,16.29-4.66,24.2-2.1c1.22,0.4,2.48,0.87,3.75,0.66
			c1.26-0.21,2.46-1.44,2.11-2.68c-0.26-0.91-1.22-1.42-2.1-1.77c-3.77-1.49-7.95-1.92-11.94-1.23c-3.45,0.59-6.7,1.98-10,3.12
			c-1.36,0.47-2.73,0.89-4.13,1.21c-1.05,0.23-3.1,0.9-4.14,0.48c-0.76-0.3-0.69-1.05-1.22-1.59c-0.78-0.81-1.96-0.67-2.86-0.12
			c-1.42,0.87-2.23,2.85-1.39,4.29C62.89,88.54,64.54,88.96,65.95,88.71z"/>
		<path class="st1" d="M85.1,28.24c-31.26,0-56.69,25.43-56.69,56.69s25.43,56.69,56.69,56.69s56.69-25.43,56.69-56.69
			S116.36,28.24,85.1,28.24z M84.53,32.3c0.33,0,0.67,0,1,0c6.07,3.69,9.53,11.53,7.73,18.47c-0.93,3.58-3.87,7.21-7.55,6.83
			c-2.63-0.27-4.64-2.51-5.88-4.84c-1.24-2.34-2.02-4.94-3.63-7.05c-3.41-4.46-9.88-5.59-15.31-4.21
			c-5.44,1.38-10.09,4.79-14.6,8.13c-0.17,0.13-0.34,0.25-0.51,0.38C55.31,39.29,69.15,32.46,84.53,32.3z M47.91,106.87
			c0.01-0.06,0.03-0.12,0.04-0.18c0.63-2.96,1.63-5.84,2.97-8.56c1.37-2.76,3.27-4.86,4.96-7.37c2.01-2.99,3.92-6.16,4.47-9.73
			c0.05-0.35-0.05-0.72-0.3-0.97c-0.5-0.49-1.16-0.14-1.66,0.19c-2.16,1.46-4.23,3.06-6.18,4.78l-0.62,0.62
			c2.78-5.54,6.22-11.01,10.36-15.63c2.2,0.47,4.67-0.86,5.37-3.04c0.15-0.45,0.08-0.96-0.23-1.32c-0.68-0.78-1.81-0.22-2.56,0.37
			c-3.94,3.11-7.05,7.11-10.12,11.08c-3.08,3.97-6.16,7.96-8.63,12.33c-0.37,0.65-0.73,1.35-0.57,2.12
			c0.08,0.38,0.31,0.73,0.67,0.89c0.61,0.28,1.16-0.1,1.61-0.47c1.22-1.01,2.29-2.18,3.19-3.48l0.04-0.16
			c0.25,1.53-0.75,2.97-1.74,4.16c-1.29,1.54-2.65,3.18-4.23,4.42c-1.75,1.38-3.63,2.51-5.21,4.13c-0.48,0.49-0.93,1.01-1.34,1.57
			c-0.78,1.05-2.42,0.8-2.85-0.44c-1.49-4.27-2.44-8.8-2.77-13.49c2.81-15.51,10.88-30.28,23.86-39.08
			c2.47-1.68,5.17-3.15,8.12-3.61c2.95-0.46,6.21,0.24,8.28,2.39c1.53,1.58,2.26,3.75,3.32,5.67c3.1,5.61,9.45,9.26,15.86,9.11
			c6.41-0.15,12.59-4.08,15.43-9.83c2.49-5.03,2.32-11.26-0.29-16.2c7.06,3.28,13.29,8.07,18.24,13.97c0.72,0.85,1.16,1.9,1.3,3
			l0,0.02c0.46,3.64,0.17,7.36-0.84,10.89c-1.06,3.71-2.81,6.15-5.68,8.69c-2.84,2.51-6.96,5.84-10.85,6.54
			c-1.4,0.25-3.68,1.05-4.97,0.45c-0.42-0.2-0.79-0.36-1.21-0.56c0.1-0.72-0.34-1.47-1.01-1.74c-0.67-0.27-1.51-0.02-1.93,0.56
			c-0.54,0.76-0.33,1.85,0.18,2.63c1.02,1.55,3.02,2.23,4.87,2.12c1.85-0.11,3.6-0.88,5.25-1.72c3-1.52,5.87-3.3,8.57-5.3
			c4.19-3.11,7.69-7.31,11.42-10.88c0.61-0.58,1.14-1.25,1.57-1.98l0.01-0.01c0.29-0.49,1.02-0.45,1.25,0.08
			c2.81,6.42,4.37,13.5,4.39,20.93c0.01,4.84-0.63,9.53-1.83,13.98c-3.46,5.27-9.9,8.21-15.46,8.82
			c-7.88,0.86-15.62-1.76-21.49-4.15c-2.03-0.82-4.07-1.72-6.05-2.59c-4.7-2.06-9.56-4.19-14.6-5.53
			c-4.95-1.31-11.87-2.07-16.74,1.8c-4.32,3.43-5.5,9.38-5.74,13.76c-0.36,6.83,0.99,13.85,3.85,20.09
			c-0.52-0.29-1.04-0.59-1.55-0.9C50.13,125.34,46,115.99,47.91,106.87z M86.97,137.54c-5.62-2.51-10.65-6.76-14.3-12.11
			c-3.96-5.81-6.12-12.68-6.08-19.33c0.02-3.53,0.92-5.97,2.67-7.25c3.05-2.24,7.23-0.41,10.91,1.67
			c10.94,6.19,22.62,11.1,34.7,14.58c4.43,1.28,8.79,2.24,13.13,0.4C118.84,128.4,104,136.95,86.97,137.54z"/>
	</g>
	<circle class="st2" cx="84.88" cy="84.97" r="85.04"/>
	<g>
		<path class="st3" d="M102.62,68.83c0.32,0.21,0.74,0.21,1.1,0.08c0.36-0.12,0.67-0.36,0.96-0.6c1.33-1.11,2.42-2.5,3.17-4.06
			c0.29-0.61,0.68-1.24,0.2-1.83c-0.52-0.62-1.72-0.64-2.42-0.41c-0.91,0.29-1.65,1-2.15,1.82c-0.51,0.81-0.82,1.73-1.12,2.64
			c-0.14,0.41-0.27,0.82-0.27,1.25C102.09,68.14,102.26,68.59,102.62,68.83z"/>
		<path d="M56.17,90.64c2.12-0.37,4.01-1.53,5.91-2.53c11.03-5.83,24.43-6.99,36.3-3.14c1.83,0.59,3.73,1.31,5.62,0.99
			c1.9-0.32,3.69-2.17,3.16-4.01c-0.4-1.37-1.83-2.13-3.16-2.66c-5.65-2.23-11.92-2.88-17.91-1.85c-5.17,0.89-10.05,2.97-15.01,4.68
			c-2.03,0.7-4.09,1.34-6.2,1.81c-1.58,0.35-4.65,1.35-6.2,0.72c-1.14-0.46-1.04-1.57-1.82-2.38c-1.17-1.21-2.95-1-4.3-0.18
			c-2.13,1.3-3.34,4.28-2.08,6.43C51.57,90.37,54.04,91.01,56.17,90.64z"/>
		<path d="M84.88-0.07c-46.89,0-85.04,38.15-85.04,85.04s38.15,85.04,85.04,85.04s85.04-38.15,85.04-85.04S131.77-0.07,84.88-0.07z
			 M84.03,6.02c0.5-0.01,1,0,1.5,0.01c9.11,5.53,14.3,17.3,11.59,27.7c-1.4,5.37-5.8,10.82-11.32,10.25
			c-3.95-0.41-6.96-3.76-8.83-7.27c-1.87-3.5-3.03-7.41-5.45-10.57c-5.11-6.68-14.81-8.38-22.97-6.31
			c-8.15,2.07-15.14,7.19-21.9,12.2c-0.25,0.19-0.51,0.38-0.77,0.56C40.2,16.5,60.95,6.26,84.03,6.02z M29.1,117.87
			c0.02-0.09,0.04-0.18,0.06-0.27c0.95-4.44,2.45-8.77,4.46-12.83c2.05-4.13,4.91-7.29,7.44-11.06c3.01-4.48,5.88-9.24,6.7-14.6
			c0.08-0.53-0.07-1.08-0.46-1.45c-0.75-0.73-1.74-0.22-2.49,0.29c-3.24,2.19-6.34,4.58-9.28,7.17l-0.93,0.92
			c4.17-8.32,9.33-16.52,15.54-23.44c3.3,0.7,7-1.3,8.05-4.56c0.22-0.68,0.13-1.44-0.34-1.97c-1.02-1.17-2.72-0.34-3.85,0.56
			c-8.15,6.43-13.95,15.44-20.48,23.3c-3.29,3.96-6.26,8.23-8.23,12.98c-0.26,0.64-0.41,1.3-0.26,2.01c0.12,0.57,0.47,1.09,1,1.33
			c0.91,0.41,1.74-0.15,2.42-0.71c1.82-1.51,6.46-6.95,6.46-6.95c0.37,2.3-2.73,5.95-4.23,7.74c-1.93,2.3-13.14,13.03-14.97,14.14
			c-3.71,2.26-4.81,2.23-5.46,0.38c-0.58-1.66-1.1-3.34-1.57-5.05c-2.56-9.37-2.22-19.32,0.77-28.57
			c5.85-18.16,16.75-34.6,32.44-45.23c3.71-2.51,7.75-4.73,12.18-5.42c4.43-0.69,9.31,0.36,12.42,3.58
			c2.29,2.38,3.39,5.62,4.99,8.51c4.65,8.41,14.18,13.89,23.79,13.67c9.61-0.22,18.88-6.12,23.14-14.74
			c3.73-7.55,3.48-16.88-0.44-24.31c10.92,5.07,20.5,12.55,28.04,21.78c0.63,0.78,1.03,1.72,1.15,2.72l0.01,0.07
			c0.6,4.68,0.53,9.44-0.38,14.07c-1.47,7.45-4.2,11.72-9.29,16.22c-4.26,3.77-10.44,8.76-16.28,9.81c-2.1,0.38-5.52,1.58-7.46,0.68
			c-0.64-0.3-1.18-0.55-1.82-0.84c0.15-1.07-0.51-2.21-1.51-2.61c-1.01-0.4-2.26-0.04-2.9,0.84c-0.82,1.14-0.5,2.77,0.27,3.95
			c1.53,2.33,4.53,3.35,7.31,3.19c2.78-0.16,5.4-1.33,7.88-2.59c4.5-2.28,8.81-4.95,12.86-7.96c6.25-4.64,11.46-10.88,17.03-16.22
			c0.95-0.91,1.79-1.93,2.46-3.07l0.01-0.02c0.44-0.74,1.53-0.67,1.88,0.11c4.21,9.62,6.56,20.24,6.58,31.4
			c0.01,7.26-0.95,14.29-2.75,20.97c-5.2,7.91-14.84,12.31-23.18,13.22c-11.82,1.3-23.44-2.65-32.24-6.22
			c-3.04-1.24-6.1-2.58-9.07-3.88c-7.05-3.09-14.34-6.29-21.9-8.29c-7.42-1.97-17.8-3.1-25.11,2.7c-6.47,5.14-8.25,14.06-8.6,20.65
			c-0.55,10.24,1.49,20.77,5.77,30.14c-0.79-0.43-1.56-0.88-2.33-1.34C32.43,145.58,26.24,131.55,29.1,117.87z M87.7,163.89
			c-8.43-3.76-15.98-10.14-21.45-18.16c-5.95-8.72-9.18-19.01-9.12-28.99c0.03-5.29,1.38-8.95,4-10.87
			c4.58-3.36,10.85-0.62,16.37,2.51c16.41,9.29,33.93,16.65,52.05,21.87c6.65,1.92,13.18,3.36,19.7,0.6
			C135.5,150.17,113.23,162.99,87.7,163.89z"/>
	</g>
</g>
</svg>
