<?xml version="1.0" encoding="utf-8"?>
<!-- Generator: Adobe Illustrator 27.0.0, SVG Export Plug-In . SVG Version: 6.00 Build 0)  -->
<svg version="1.1" id="Layer_1" xmlns="http://www.w3.org/2000/svg" xmlns:xlink="http://www.w3.org/1999/xlink" x="0px" y="0px"
	 viewBox="0 0 170.08 170.08" style="enable-background:new 0 0 170.08 170.08;" xml:space="preserve">
<style type="text/css">
	.st0{display:none;}
	.st1{display:inline;fill:#15152E;}
	.st2{fill:none;}
	.st3{fill:#010202;}
</style>
<g>
	<g class="st0">
		<path class="st1" d="M89.1,81.4c0.07,0.05,0.17,0.05,0.25,0.02c0.08-0.03,0.15-0.08,0.22-0.13c0.3-0.25,0.54-0.56,0.71-0.91
			c0.07-0.14,0.15-0.28,0.04-0.41c-0.12-0.14-0.39-0.14-0.54-0.09c-0.2,0.07-0.37,0.23-0.48,0.41c-0.11,0.18-0.18,0.39-0.25,0.59
			c-0.03,0.09-0.06,0.18-0.06,0.28C88.98,81.24,89.01,81.34,89.1,81.4z"/>
		<path class="st1" d="M78.67,86.3c0.48-0.08,0.9-0.34,1.33-0.57c2.48-1.31,5.48-1.57,8.15-0.71c0.41,0.13,0.84,0.29,1.26,0.22
			c0.43-0.07,0.83-0.49,0.71-0.9c-0.09-0.31-0.41-0.48-0.71-0.6c-1.27-0.5-2.68-0.65-4.02-0.42c-1.16,0.2-2.26,0.67-3.37,1.05
			c-0.46,0.16-0.92,0.3-1.39,0.41c-0.35,0.08-1.04,0.3-1.39,0.16c-0.26-0.1-0.23-0.35-0.41-0.54c-0.26-0.27-0.66-0.23-0.96-0.04
			c-0.48,0.29-0.75,0.96-0.47,1.45C77.63,86.24,78.19,86.38,78.67,86.3z"/>
		<path class="st1" d="M85.11,65.9c-10.53,0-19.09,8.58-19.09,19.12s8.56,19.12,19.09,19.12s19.09-8.58,19.09-19.12
			S95.64,65.9,85.11,65.9z M84.92,67.27c0.11,0,0.22,0,0.34,0c2.04,1.24,3.21,3.89,2.6,6.23c-0.31,1.21-1.3,2.43-2.54,2.3
			c-0.89-0.09-1.56-0.85-1.98-1.63c-0.42-0.79-0.68-1.67-1.22-2.38c-1.15-1.5-3.33-1.89-5.16-1.42c-1.83,0.47-3.4,1.62-4.92,2.74
			c-0.06,0.04-0.11,0.08-0.17,0.13C75.08,69.63,79.74,67.33,84.92,67.27z M72.59,92.42c0-0.02,0.01-0.04,0.01-0.06
			c0.21-1,0.55-1.97,1-2.89c0.46-0.93,1.1-1.64,1.67-2.49c0.68-1.01,1.32-2.08,1.5-3.28c0.02-0.12-0.02-0.24-0.1-0.33
			c-0.17-0.16-0.39-0.05-0.56,0.07c-0.73,0.49-1.42,1.03-2.08,1.61l-0.21,0.21c0.94-1.87,2.09-3.71,3.49-5.27
			c0.74,0.16,1.57-0.29,1.81-1.02c0.05-0.15,0.03-0.32-0.08-0.44c-0.23-0.26-0.61-0.08-0.86,0.13c-1.33,1.05-2.37,2.4-3.41,3.74
			c-1.04,1.34-2.08,2.68-2.9,4.16c-0.12,0.22-0.25,0.46-0.19,0.71c0.03,0.13,0.11,0.25,0.23,0.3c0.2,0.09,0.39-0.03,0.54-0.16
			c0.41-0.34,0.77-0.73,1.07-1.17l0.01-0.05c0.08,0.52-0.25,1-0.59,1.4c-0.43,0.52-0.89,1.07-1.42,1.49
			c-0.59,0.47-1.22,0.85-1.75,1.39c-0.16,0.17-0.31,0.34-0.45,0.53c-0.26,0.35-0.81,0.27-0.96-0.15c-0.5-1.44-0.82-2.97-0.93-4.55
			c0.95-5.23,3.66-10.21,8.04-13.18c0.83-0.57,1.74-1.06,2.73-1.22c0.99-0.16,2.09,0.08,2.79,0.81c0.51,0.53,0.76,1.26,1.12,1.91
			c1.04,1.89,3.18,3.12,5.34,3.07c2.16-0.05,4.24-1.38,5.2-3.31c0.84-1.7,0.78-3.8-0.1-5.47c2.38,1.11,4.47,2.72,6.14,4.71
			c0.24,0.29,0.39,0.64,0.44,1.01l0,0.01c0.16,1.23,0.06,2.48-0.28,3.67c-0.36,1.25-0.95,2.07-1.91,2.93
			c-0.96,0.85-2.34,1.97-3.65,2.21c-0.47,0.09-1.24,0.35-1.67,0.15c-0.14-0.07-0.27-0.12-0.41-0.19c0.03-0.24-0.11-0.5-0.34-0.59
			c-0.23-0.09-0.51-0.01-0.65,0.19c-0.18,0.26-0.11,0.62,0.06,0.89c0.34,0.52,1.02,0.75,1.64,0.72c0.62-0.04,1.21-0.3,1.77-0.58
			c1.01-0.51,1.98-1.11,2.89-1.79c1.41-1.05,2.59-2.46,3.85-3.67c0.21-0.2,0.38-0.42,0.53-0.67l0,0c0.1-0.17,0.34-0.15,0.42,0.03
			c0.95,2.16,1.47,4.55,1.48,7.06c0,1.63-0.21,3.21-0.62,4.71c-1.17,1.78-3.33,2.77-5.2,2.97c-2.65,0.29-5.26-0.59-7.24-1.4
			c-0.68-0.28-1.37-0.58-2.04-0.87c-1.58-0.69-3.22-1.41-4.92-1.86c-1.67-0.44-4-0.7-5.64,0.61c-1.45,1.16-1.85,3.16-1.93,4.64
			c-0.12,2.3,0.33,4.67,1.29,6.78c-0.18-0.1-0.35-0.2-0.52-0.3C73.34,98.65,71.95,95.5,72.59,92.42z M85.75,102.77
			c-1.89-0.85-3.59-2.28-4.81-4.08c-1.33-1.96-2.06-4.28-2.05-6.52c0.01-1.19,0.31-2.01,0.9-2.44c1.03-0.76,2.44-0.14,3.68,0.56
			c3.68,2.09,7.62,3.74,11.68,4.92c1.49,0.43,2.96,0.76,4.42,0.14C96.48,99.68,91.48,102.57,85.75,102.77z"/>
	</g>
	<ellipse class="st2" cx="85.04" cy="85.04" rx="28.64" ry="28.68"/>
	<g>
		<path class="st3" d="M91.01,79.59c0.11,0.07,0.25,0.07,0.37,0.03c0.12-0.04,0.23-0.12,0.32-0.2c0.45-0.37,0.81-0.84,1.07-1.37
			c0.1-0.2,0.23-0.42,0.07-0.62c-0.18-0.21-0.58-0.21-0.81-0.14c-0.31,0.1-0.55,0.34-0.72,0.61s-0.27,0.58-0.38,0.89
			c-0.05,0.14-0.09,0.28-0.09,0.42C90.84,79.36,90.89,79.51,91.01,79.59z"/>
		<path d="M75.37,86.95c0.71-0.13,1.35-0.52,1.99-0.85c3.71-1.97,8.23-2.36,12.22-1.06c0.62,0.2,1.26,0.44,1.89,0.33
			c0.64-0.11,1.24-0.73,1.06-1.35c-0.13-0.46-0.62-0.72-1.06-0.9c-1.9-0.75-4.01-0.97-6.03-0.62c-1.74,0.3-3.38,1-5.05,1.58
			c-0.68,0.24-1.38,0.45-2.09,0.61c-0.53,0.12-1.57,0.45-2.09,0.24c-0.39-0.15-0.35-0.53-0.61-0.8c-0.4-0.41-0.99-0.34-1.45-0.06
			c-0.72,0.44-1.12,1.44-0.7,2.17C73.82,86.86,74.66,87.07,75.37,86.95z"/>
		<path d="M85.04,56.36c-15.79,0-28.64,12.87-28.64,28.68s12.85,28.68,28.64,28.68s28.64-12.87,28.64-28.68
			S100.83,56.36,85.04,56.36z M84.75,58.41c0.17,0,0.34,0,0.5,0c3.07,1.87,4.81,5.83,3.9,9.34c-0.47,1.81-1.95,3.65-3.81,3.46
			c-1.33-0.14-2.34-1.27-2.97-2.45c-0.63-1.18-1.02-2.5-1.83-3.56c-1.72-2.25-4.99-2.83-7.73-2.13c-2.75,0.7-5.1,2.43-7.37,4.11
			c-0.09,0.06-0.17,0.13-0.26,0.19C69.99,61.95,76.98,58.49,84.75,58.41z M66.26,96.14c0.01-0.03,0.01-0.06,0.02-0.09
			c0.32-1.5,0.82-2.96,1.5-4.33c0.69-1.39,1.65-2.46,2.51-3.73c1.01-1.51,1.98-3.12,2.26-4.92c0.03-0.18-0.03-0.36-0.15-0.49
			c-0.25-0.25-0.58-0.07-0.84,0.1c-1.09,0.74-2.14,1.55-3.12,2.42l-0.31,0.31c1.4-2.8,3.14-5.57,5.23-7.91
			c1.11,0.24,2.36-0.44,2.71-1.54c0.07-0.23,0.04-0.48-0.11-0.67c-0.34-0.4-0.91-0.11-1.3,0.19c-2.75,2.17-4.7,5.21-6.9,7.86
			c-1.11,1.34-2.11,2.77-2.77,4.38c-0.09,0.21-0.14,0.44-0.09,0.68c0.04,0.19,0.16,0.37,0.34,0.45c0.31,0.14,0.59-0.05,0.81-0.24
			c0.61-0.51,2.18-2.34,2.18-2.34c0.13,0.78-0.92,2.01-1.42,2.61c-0.65,0.78-4.42,4.39-5.04,4.77c-1.25,0.76-1.62,0.75-1.84,0.13
			c-0.19-0.56-0.37-1.13-0.53-1.7c-0.86-3.16-0.75-6.52,0.26-9.64c1.97-6.12,5.64-11.67,10.92-15.26c1.25-0.85,2.61-1.59,4.1-1.83
			c1.49-0.23,3.14,0.12,4.18,1.21c0.77,0.8,1.14,1.9,1.68,2.87c1.57,2.84,4.78,4.68,8.01,4.61c3.24-0.07,6.36-2.07,7.79-4.97
			c1.26-2.55,1.17-5.69-0.15-8.2c3.68,1.71,6.9,4.23,9.44,7.34c0.21,0.26,0.35,0.58,0.39,0.92l0,0.02c0.2,1.58,0.18,3.18-0.13,4.74
			c-0.5,2.51-1.42,3.95-3.13,5.47c-1.43,1.27-3.52,2.95-5.48,3.31c-0.71,0.13-1.86,0.53-2.51,0.23c-0.21-0.1-0.4-0.18-0.61-0.28
			c0.05-0.36-0.17-0.74-0.51-0.88c-0.34-0.14-0.76-0.01-0.97,0.28c-0.28,0.38-0.17,0.94,0.09,1.33c0.52,0.78,1.53,1.13,2.46,1.07
			c0.94-0.05,1.82-0.45,2.65-0.87c1.52-0.77,2.97-1.67,4.33-2.68c2.1-1.56,3.86-3.67,5.73-5.47c0.32-0.31,0.6-0.65,0.83-1.03l0-0.01
			c0.15-0.25,0.52-0.23,0.63,0.04c1.42,3.25,2.21,6.83,2.22,10.59c0,2.45-0.32,4.82-0.93,7.07c-1.75,2.67-5,4.15-7.81,4.46
			c-3.98,0.44-7.89-0.89-10.86-2.1c-1.02-0.42-2.06-0.87-3.05-1.31c-2.37-1.04-4.83-2.12-7.37-2.8c-2.5-0.66-5.99-1.05-8.46,0.91
			c-2.18,1.73-2.78,4.74-2.9,6.96c-0.18,3.45,0.5,7.01,1.94,10.17c-0.26-0.15-0.53-0.3-0.79-0.45
			C67.38,105.48,65.29,100.75,66.26,96.14z M85.99,111.65c-2.84-1.27-5.38-3.42-7.22-6.13c-2-2.94-3.09-6.41-3.07-9.78
			c0.01-1.78,0.47-3.02,1.35-3.67c1.54-1.13,3.65-0.21,5.51,0.85c5.53,3.13,11.42,5.62,17.53,7.38c2.24,0.65,4.44,1.13,6.63,0.2
			C102.08,107.03,94.59,111.35,85.99,111.65z"/>
	</g>
</g>
</svg>
