<?xml version="1.0" encoding="utf-8"?>
<!-- Generator: Adobe Illustrator 27.0.0, SVG Export Plug-In . SVG Version: 6.00 Build 0)  -->
<svg version="1.1" id="Layer_1" xmlns="http://www.w3.org/2000/svg" xmlns:xlink="http://www.w3.org/1999/xlink" x="0px" y="0px"
	 viewBox="0 0 238.09 238.09" style="enable-background:new 0 0 238.09 238.09;" xml:space="preserve">
<style type="text/css">
	.st0{fill:#EB671C;}
	.st1{fill:#F6F3DE;}
	.st2{fill:#324193;}
	.st3{fill:none;stroke:#222222;stroke-width:9;stroke-miterlimit:10;}
</style>
<g>
	<g id="XMLID_00000155853823202063610440000002302241395912703902_">
		<g>
			<path class="st0" d="M233.59,67.91c0,20.99-10.19,39.59-25.9,51.13c-10.51-7.72-23.48-12.29-37.52-12.29
				c21.45,0,38.84-17.39,38.84-38.84c0-21.45-17.39-38.83-38.84-38.83c-21.45,0-38.84,17.39-38.84,38.83
				c0-14.04-4.57-27.01-12.29-37.52c11.55-15.7,30.14-25.9,51.13-25.9C205.2,4.5,233.59,32.89,233.59,67.91z"/>
			<path class="st0" d="M207.69,119.04c15.7,11.55,25.9,30.14,25.9,51.13c0,35.03-28.39,63.42-63.42,63.42
				c-20.99,0-39.58-10.19-51.13-25.9c7.72-10.51,12.29-23.48,12.29-37.52c0,21.45,17.39,38.84,38.84,38.84
				c21.45,0,38.84-17.39,38.84-38.84s-17.39-38.84-38.84-38.84c-14.04,0-27.01-4.57-37.52-12.29c-5.2-3.82-9.79-8.41-13.61-13.61
				c-7.72-10.51-12.29-23.48-12.29-37.52c0-21.45-17.39-38.83-38.83-38.83c-21.45,0-38.84,17.39-38.84,38.83
				c0,21.45,17.39,38.84,38.84,38.84c-14.04,0-27.02,4.57-37.52,12.29C14.69,107.5,4.5,88.9,4.5,67.91
				C4.5,32.89,32.89,4.5,67.92,4.5c20.98,0,39.58,10.19,51.12,25.9c7.72,10.51,12.29,23.48,12.29,37.52
				c0,21.45,17.39,38.84,38.84,38.84C184.21,106.75,197.18,111.32,207.69,119.04z"/>
			<path class="st1" d="M170.17,29.08c21.45,0,38.84,17.39,38.84,38.83c0,21.45-17.39,38.84-38.84,38.84
				c-21.45,0-38.84-17.39-38.84-38.84C131.33,46.47,148.72,29.08,170.17,29.08z M189.26,67.91c0-10.54-8.55-19.09-19.09-19.09
				c-10.54,0-19.09,8.55-19.09,19.09s8.55,19.09,19.09,19.09C180.71,87.01,189.26,78.46,189.26,67.91z"/>
			<path class="st1" d="M170.17,131.33c21.45,0,38.84,17.39,38.84,38.84s-17.39,38.84-38.84,38.84c-21.45,0-38.84-17.39-38.84-38.84
				S148.72,131.33,170.17,131.33z M189.26,170.17c0-10.54-8.55-19.09-19.09-19.09c-10.54,0-19.09,8.55-19.09,19.09
				c0,10.54,8.55,19.09,19.09,19.09C180.71,189.26,189.26,180.71,189.26,170.17z"/>
			<path class="st2" d="M170.17,48.83c10.54,0,19.09,8.55,19.09,19.09s-8.55,19.09-19.09,19.09c-10.54,0-19.09-8.55-19.09-19.09
				S159.63,48.83,170.17,48.83z"/>
			<path class="st2" d="M170.17,151.08c10.54,0,19.09,8.55,19.09,19.09c0,10.54-8.55,19.09-19.09,19.09
				c-10.54,0-19.09-8.55-19.09-19.09C151.08,159.63,159.63,151.08,170.17,151.08z"/>
			<path class="st0" d="M132.65,119.04c10.51,7.72,23.48,12.29,37.52,12.29c-21.45,0-38.84,17.39-38.84,38.84
				c0-14.04-4.57-27.01-12.29-37.52C122.86,127.46,127.46,122.86,132.65,119.04z"/>
			<path class="st0" d="M67.92,131.33c-21.45,0-38.84,17.39-38.84,38.84s17.39,38.84,38.84,38.84c21.45,0,38.83-17.39,38.83-38.84
				S89.37,131.33,67.92,131.33z M105.44,119.04c5.2,3.82,9.79,8.41,13.61,13.61c7.72,10.51,12.29,23.48,12.29,37.52
				s-4.57,27.01-12.29,37.52c-11.54,15.71-30.14,25.9-51.12,25.9c-35.03,0-63.42-28.39-63.42-63.42c0-20.99,10.19-39.58,25.9-51.13
				c10.51-7.72,23.48-12.29,37.52-12.29c21.45,0,38.83-17.39,38.83-38.84c0,14.04,4.57,27.02,12.29,37.52
				C115.23,110.63,110.63,115.23,105.44,119.04z"/>
			<path class="st1" d="M119.04,105.44c3.82,5.2,8.41,9.79,13.61,13.61c-5.2,3.82-9.79,8.41-13.61,13.61
				c-3.82-5.2-8.41-9.79-13.61-13.61C110.63,115.23,115.23,110.63,119.04,105.44z"/>
			<path class="st1" d="M67.92,29.08c21.45,0,38.83,17.39,38.83,38.83c0,21.45-17.39,38.84-38.83,38.84
				c-21.45,0-38.84-17.39-38.84-38.84C29.08,46.47,46.47,29.08,67.92,29.08z M87.01,67.91c0-10.54-8.55-19.09-19.09-19.09
				s-19.09,8.55-19.09,19.09s8.55,19.09,19.09,19.09S87.01,78.46,87.01,67.91z"/>
			<path class="st1" d="M67.92,131.33c21.45,0,38.83,17.39,38.83,38.84s-17.39,38.84-38.83,38.84c-21.45,0-38.84-17.39-38.84-38.84
				S46.47,131.33,67.92,131.33z M87.01,170.17c0-10.54-8.55-19.09-19.09-19.09s-19.09,8.55-19.09,19.09
				c0,10.54,8.55,19.09,19.09,19.09S87.01,180.71,87.01,170.17z"/>
			<path class="st2" d="M67.92,48.83c10.54,0,19.09,8.55,19.09,19.09s-8.55,19.09-19.09,19.09s-19.09-8.55-19.09-19.09
				S57.38,48.83,67.92,48.83z"/>
			<path class="st2" d="M67.92,151.08c10.54,0,19.09,8.55,19.09,19.09c0,10.54-8.55,19.09-19.09,19.09s-19.09-8.55-19.09-19.09
				C48.83,159.63,57.38,151.08,67.92,151.08z"/>
		</g>
		<g>
			<path class="st3" d="M105.44,119.04c5.2-3.82,9.79-8.41,13.61-13.61"/>
			<path class="st3" d="M119.04,30.4C107.5,14.69,88.9,4.5,67.92,4.5C32.89,4.5,4.5,32.89,4.5,67.91c0,20.99,10.19,39.59,25.9,51.13
				"/>
			<path class="st3" d="M106.75,67.91c0-21.45-17.39-38.83-38.83-38.83c-21.45,0-38.84,17.39-38.84,38.83
				c0,21.45,17.39,38.84,38.84,38.84C89.37,106.75,106.75,89.37,106.75,67.91z"/>
			<path class="st3" d="M119.04,105.44c3.82,5.2,8.41,9.79,13.61,13.61"/>
			<path class="st3" d="M207.69,119.04c15.7-11.54,25.9-30.14,25.9-51.13c0-35.02-28.39-63.41-63.42-63.41
				c-20.99,0-39.58,10.19-51.13,25.9"/>
			<path class="st3" d="M131.33,67.91c0-14.04-4.57-27.01-12.29-37.52"/>
			<path class="st3" d="M106.75,67.91c0,14.04,4.57,27.02,12.29,37.52"/>
			<path class="st3" d="M170.17,106.75c21.45,0,38.84-17.39,38.84-38.84c0-21.45-17.39-38.83-38.84-38.83
				c-21.45,0-38.84,17.39-38.84,38.83C131.33,89.37,148.72,106.75,170.17,106.75z"/>
			<path class="st3" d="M30.4,119.04c-15.7,11.55-25.9,30.14-25.9,51.13c0,35.03,28.39,63.42,63.42,63.42
				c20.98,0,39.58-10.19,51.12-25.9"/>
			<path class="st3" d="M119.04,132.65c-3.82-5.2-8.41-9.79-13.61-13.61"/>
			<path class="st3" d="M67.92,106.75c-14.04,0-27.02,4.57-37.52,12.29"/>
			<path class="st3" d="M67.92,131.33c14.04,0,27.01-4.57,37.52-12.29"/>
			<path class="st3" d="M67.92,131.33c-21.45,0-38.84,17.39-38.84,38.84s17.39,38.84,38.84,38.84c21.45,0,38.83-17.39,38.83-38.84
				S89.37,131.33,67.92,131.33z"/>
			<path class="st3" d="M119.04,207.69c11.55,15.71,30.14,25.9,51.13,25.9c35.03,0,63.42-28.39,63.42-63.42
				c0-20.99-10.19-39.58-25.9-51.13"/>
			<path class="st3" d="M132.65,119.04c-5.2,3.82-9.79,8.41-13.61,13.61"/>
			<path class="st3" d="M207.69,119.04c-10.51-7.72-23.48-12.29-37.52-12.29"/>
			<path class="st3" d="M132.65,119.04c10.51,7.72,23.48,12.29,37.52,12.29"/>
			<path class="st3" d="M119.04,207.69c7.72-10.51,12.29-23.48,12.29-37.52s-4.57-27.01-12.29-37.52"/>
			<circle class="st3" cx="170.17" cy="170.17" r="38.84"/>
			<path class="st3" d="M87.01,67.91c0,10.54-8.55,19.09-19.09,19.09s-19.09-8.55-19.09-19.09s8.55-19.09,19.09-19.09
				S87.01,57.37,87.01,67.91z"/>
			<path class="st3" d="M189.26,67.91c0,10.54-8.55,19.09-19.09,19.09c-10.54,0-19.09-8.55-19.09-19.09s8.55-19.09,19.09-19.09
				C180.71,48.83,189.26,57.37,189.26,67.91z"/>
			<path class="st3" d="M87.01,170.17c0,10.54-8.55,19.09-19.09,19.09s-19.09-8.55-19.09-19.09c0-10.54,8.55-19.09,19.09-19.09
				S87.01,159.63,87.01,170.17z"/>
			<path class="st3" d="M189.26,170.17c0,10.54-8.55,19.09-19.09,19.09c-10.54,0-19.09-8.55-19.09-19.09
				c0-10.54,8.55-19.09,19.09-19.09C180.71,151.08,189.26,159.63,189.26,170.17z"/>
		</g>
	</g>
</g>
</svg>
